<svg xmlns="http://www.w3.org/2000/svg" xmlns:xlink="http://www.w3.org/1999/xlink" id="Logo-Home-header" width="100%" height="100%" viewBox="0 0 321 59" version="1.1" style="&#10;    /* color: green; */&#10;">
    <!-- Generator: Sketch 64 (93537) - https://sketch.com -->
    <title>Group 6</title>
    <desc>Created with Sketch.</desc>
    
    <g id="Website-Proposals" stroke="rgb(0, 255, 255)" stroke-width="1" fill="rgb(0, 255, 255)" fill-rule="evenodd" style="&#10;">
        <g id="Landing-Page---XL" transform="translate(-148.000000, -201.000000)">
            <g id="Group-6" transform="translate(148.000000, 201.000000)">
                <g id="Group-5">
                    <g id="Group-18">
                        
                        <g id="Clip-17"/>
                        <path d="M52.7758708,17.4764148 C52.1378495,8.91723424 45.7108893,1.97345079 37.3958363,0.545045015 C36.4132662,0.375367723 35.4055909,0.281872072 34.376273,0.274080768 C34.3251967,0.273215068 34.2749861,0.269752266 34.2239098,0.269752266 C34.1728334,0.269752266 34.1226228,0.273215068 34.0715465,0.274080768 L33.4118827,0.274080768 C33.3608064,0.273215068 33.3105958,0.269752266 33.2595194,0.269752266 C33.2075774,0.269752266 33.1573668,0.273215068 33.1062905,0.274080768 L19.9277322,0.274080768 C19.8775216,0.273215068 19.8264453,0.269752266 19.7753689,0.269752266 C19.7242926,0.269752266 19.674082,0.273215068 19.6230057,0.274080768 L18.9633419,0.274080768 C18.9122656,0.273215068 18.8620549,0.269752266 18.8109786,0.269752266 C18.7599023,0.269752266 18.7096917,0.273215068 18.6586153,0.274080768 C17.6292975,0.281872072 16.6216221,0.375367723 15.6390521,0.545045015 C7.3239991,1.97345079 0.897038825,8.91723424 0.25901758,17.4764148 C0.249494875,17.5196998 0.238240769,17.5621191 0.228718064,17.6045384 C0.213135455,17.7205423 0.20274705,17.8374119 0.20274705,17.9568785 C0.20274705,18.0503742 0.207941252,18.1421384 0.217463958,18.2321713 C0.209672653,18.446865 0.20274705,18.6615587 0.20274705,18.8779838 C0.20274705,25.0287857 3.18854797,30.4809672 7.78888025,33.8684531 C8.00530537,34.027742 8.23298459,34.1714483 8.45546961,34.3212145 C9.80682805,35.2284686 11.2759217,35.972971 12.8463024,36.5036454 C14.561255,37.0845304 16.3870173,37.4221536 18.2846327,37.475827 C18.3564859,37.4810212 18.428339,37.4862154 18.5010578,37.4862154 L20.2705496,37.4862154 C21.7214636,37.4862154 22.8970848,36.3105942 22.8970848,34.8596802 C22.8970848,33.4087662 21.7214636,32.2322793 20.2705496,32.2322793 L18.5010578,32.2322793 C16.7774482,32.1933227 15.1360801,31.8245343 13.6323584,31.1917073 C12.3952724,30.6714213 11.2534135,29.9684725 10.2388126,29.1200861 C9.86742708,28.8084339 9.51162419,28.4794677 9.1765981,28.1305904 C6.96733051,25.8330214 5.57528416,22.7476649 5.46014599,19.3359394 C5.45495179,19.1835761 5.44889189,19.0320785 5.44889189,18.8779838 C5.44889189,11.6017714 11.2646676,5.6890372 18.5010578,5.52368841 C18.5529999,5.52282271 18.6049419,5.52022561 18.6568839,5.51935991 L18.9642076,5.51935991 L22.9481612,5.51935991 L30.0867272,5.51935991 L30.0867272,11.0390661 C30.0867272,13.3496206 31.4822364,15.0585134 34.2524779,15.0585134 C39.6033725,15.0585134 44.960327,16.9561288 48.5971346,19.6960708 C51.2963887,21.7287355 52.8918747,19.5194679 52.7758708,17.4764148" id="Fill-16" fill="#FFFFFF" mask="url(#mask-2)"/>
                    </g>
                    <path d="M0.208460673,41.0349813 C0.846481918,49.5941619 7.27344219,56.5379453 15.5884952,57.9663511 C16.5710652,58.1360284 17.5787406,58.229524 18.6080584,58.2373153 C18.6591348,58.238181 18.7093454,58.2416438 18.7604217,58.2416438 C18.811498,58.2416438 18.8617087,58.238181 18.912785,58.2373153 L19.5724487,58.2373153 C19.6235251,58.238181 19.6737357,58.2416438 19.724812,58.2416438 C19.7767541,58.2416438 19.8269647,58.238181 19.878041,58.2373153 L33.0565992,58.2373153 C33.1068099,58.238181 33.1578862,58.2416438 33.2089625,58.2416438 C33.2600389,58.2416438 33.3102495,58.238181 33.3613258,58.2373153 L34.0209896,58.2373153 C34.0720659,58.238181 34.1222765,58.2416438 34.1733528,58.2416438 C34.2244292,58.2416438 34.2755055,58.238181 34.3257161,58.2373153 C35.355034,58.229524 36.3627093,58.1360284 37.3452794,57.9663511 C45.6603324,56.5379453 52.0872926,49.5941619 52.7253139,41.0349813 C52.7348366,40.9916963 52.7460907,40.949277 52.7556134,40.9068577 C52.771196,40.7908538 52.7815844,40.6739842 52.7815844,40.5545176 C52.7815844,40.4610219 52.7763902,40.3692577 52.7668675,40.2792248 C52.7746588,40.0645311 52.7815844,39.8498374 52.7815844,39.6334123 C52.7815844,33.4826104 49.7957835,28.0304289 45.1954512,24.642943 C44.9790261,24.4836541 44.7513469,24.3399478 44.5288619,24.1901816 C43.1775034,23.2829275 41.7084097,22.5384251 40.1380291,22.0077507 C38.4230764,21.4277314 36.5973142,21.0892425 34.6996987,21.0355691 C34.6278456,21.0303749 34.5559925,21.0251807 34.4832736,21.0251807 L32.7137819,21.0251807 C31.2628679,21.0251807 30.0872466,22.2008019 30.0872466,23.6517159 C30.0872466,25.1026299 31.2628679,26.2791168 32.7137819,26.2791168 L34.4832736,26.2791168 C36.2068832,26.3180734 37.8482513,26.6868618 39.351973,27.3196888 C40.589059,27.8399748 41.7309179,28.5429236 42.7455189,29.39131 C43.1169044,29.7029622 43.4727073,30.0319284 43.8077334,30.3808057 C46.017001,32.6783747 47.4090473,35.7637312 47.5241855,39.1754567 C47.5293797,39.32782 47.5354396,39.4801833 47.5354396,39.6334123 C47.5354396,46.9096247 41.7196638,52.8223589 34.4832736,52.9877077 C34.4313316,52.9885734 34.3793896,52.9911705 34.3274475,52.9920362 L34.0201239,52.9920362 L30.0361703,52.9920362 L22.8976042,52.9920362 L22.8976042,47.47233 C22.8976042,45.1617755 21.5020951,43.4528827 18.7318536,43.4528827 C13.380959,43.4528827 8.0240045,41.5552673 4.38719683,38.8153253 C1.68794277,36.7826606 0.09245681,38.9919282 0.208460673,41.0349813" id="Fill-19" fill="#FFFFFF"/>
                </g>
                <g id="Group-3" transform="translate(94.956520, 1.826087)">
                    <path d="M74.6837413,23.4498779 C75.382037,23.4498779 76.4104891,23.20153 77.2052022,22.5003127 C77.9473239,21.8487648 78.3388369,20.940104 78.3388369,19.8736692 C78.3388369,17.4047997 76.2001239,16.2945389 74.6837413,16.2945389 L62.9208198,16.2945389 L62.9208198,3.65509559 C62.9208198,2.38121735 61.8076372,2.5950256e-14 59.1254807,2.5950256e-14 C56.4404025,2.5950256e-14 55.3272199,2.38121735 55.3272199,3.65509559 L55.3272199,16.2945389 L46.199707,16.2945389 C44.7066984,16.2945389 42.5475332,17.5684171 42.5475332,19.8736692 C42.5475332,22.2227474 44.9258288,23.4498779 46.199707,23.4498779 L55.3272199,23.4498779 L55.3272199,38.0147472 C55.3476721,47.6681731 63.2188372,55.5247295 72.8722631,55.5247295 L74.5376544,55.5247295 C75.0606457,55.5247295 75.57195,55.4166251 76.0569587,55.2033382 C77.441863,54.5985382 78.3388369,53.2311643 78.3388369,51.7235469 C78.3388369,51.1508861 78.2044369,50.5899122 77.9385587,50.0523122 C77.2928543,48.7375296 75.9897587,47.9223644 74.5376544,47.9223644 L72.3668022,47.9223644 C67.2479154,47.6886253 63.0990459,43.493008 62.9208198,38.4033385 L62.9208198,23.4498779 L74.6837413,23.4498779 Z" id="Fill-1" fill="#FFFFFF"/>
                    <path d="M102.206816,48.2215505 C98.9812157,48.2215505 96.4393027,47.1814114 94.4349897,45.0426984 C92.4423636,42.9156723 91.4314419,39.8653767 91.4314419,35.9823855 L91.4314419,34.8107681 C91.4314419,32.975916 91.7090071,31.2725421 92.2553723,29.7473943 C92.7958941,28.2368552 93.558468,26.939603 94.5167984,25.8906987 C95.4751288,24.8447161 96.6146071,24.0207857 97.9060157,23.4422813 C99.1945027,22.863777 100.640764,22.5716031 102.206816,22.5716031 C103.723198,22.5716031 105.15485,22.875464 106.466711,23.4744205 C107.778572,24.0762987 108.932659,24.9236031 109.890989,25.9929596 C110.852242,27.0681595 111.617737,28.3800204 112.158259,29.8934812 C112.704624,31.418629 112.982189,33.1220029 112.982189,34.9568551 L112.982189,35.8362985 C112.982189,37.7208202 112.704624,39.4504898 112.158259,40.9756376 C111.614815,42.4890984 110.863929,43.803881 109.920207,44.8820027 C108.991094,45.942594 107.857459,46.7752896 106.551442,47.3508722 C105.239581,47.9293766 103.778711,48.2215505 102.206816,48.2215505 M121.539963,46.7460722 C121.008207,46.7460722 120.575789,46.3165766 120.575789,45.7848201 L120.575789,18.5921945 C120.575789,17.0670467 119.13245,14.9400206 116.78045,14.9400206 C114.425528,14.9400206 112.982189,17.0670467 112.982189,18.5921945 L112.982189,20.9850988 C111.836868,19.2817249 110.402294,17.9552553 108.695998,17.0290641 C106.539755,15.8603684 104.11179,15.2701771 101.473459,15.2701771 C99.0688679,15.2701771 96.7577723,15.7113597 94.6044506,16.582038 C92.4394419,17.4585597 90.5198593,18.7528901 88.8982941,20.4241249 C87.2796507,22.0982814 85.9911638,24.1639509 85.0708159,26.5656204 C84.1563116,28.9585247 83.6917551,31.7312551 83.6917551,34.8107681 L83.6917551,35.9823855 C83.6917551,39.111568 84.1563116,41.9105941 85.0708159,44.3005766 C85.9911638,46.7051679 87.2796507,48.7708374 88.8982941,50.4420722 C90.5227811,52.1191504 92.4452854,53.3988721 94.6132158,54.2520199 C96.7636157,55.0964025 99.1214592,55.5229764 101.622468,55.5229764 C104.067963,55.5229764 106.43165,54.8918808 108.637563,53.6442982 C110.562989,52.5574113 112.14365,50.9504548 113.341563,48.8614113 C114.492728,51.9350809 117.288833,54.1439156 120.613772,54.4945243 L121.539963,54.497446 C123.675754,54.497446 125.414189,52.7590113 125.414189,50.62322 C125.414189,50.0008896 125.259337,49.3931679 124.952554,48.8117418 C124.274711,47.5378635 122.965772,46.7460722 121.539963,46.7460722" id="Fill-3" fill="#FFFFFF"/>
                    <path d="M177.742536,14.9385597 C175.124658,14.9385597 173.944275,17.074351 173.944275,18.5907336 L173.944275,52.20242 C173.944275,53.9963678 175.36424,55.8545938 177.742536,55.8545938 C180.360414,55.8545938 181.540797,53.7188026 181.540797,52.20242 L181.540797,18.5907336 C181.540797,16.7763336 180.23478,14.9385597 177.742536,14.9385597" id="Fill-5" fill="#FFFFFF"/>
                    <path d="M177.669493,0.331033038 C176.246606,0.331033038 175.013632,0.842337377 174.008554,1.84741562 C173.000554,2.85249386 172.492171,4.08546776 172.492171,5.50835469 C172.492171,6.93416336 173.000554,8.16713725 174.008554,9.1722155 C175.013632,10.1772937 176.243684,10.6885981 177.669493,10.6885981 C179.09238,10.6885981 180.325353,10.1772937 181.330432,9.1722155 C182.338432,8.16421551 182.846814,6.93416336 182.846814,5.50835469 C182.846814,4.0883895 182.338432,2.8554156 181.330432,1.84741562 C180.322432,0.842337377 179.09238,0.331033038 177.669493,0.331033038" id="Fill-7" fill="#FFFFFF"/>
                    <path d="M221.575634,19.4789423 C218.91393,16.6857597 215.308504,15.2687163 210.861617,15.2687163 C205.617096,15.2687163 201.704887,17.2964032 199.209722,21.2991857 L199.209722,18.5907336 C199.209722,17.3373075 197.7284,14.9385597 195.411461,14.9385597 C193.056539,14.9385597 191.6132,17.3051684 191.6132,18.5907336 L191.6132,52.20242 C191.6132,53.61362 192.644574,55.8545938 195.411461,55.8545938 C198.093617,55.8545938 199.209722,53.4762982 199.209722,52.20242 L199.209722,34.6632203 C199.209722,30.9555334 200.132991,27.969516 201.956157,25.7840552 C203.761791,23.6219683 206.1956,22.5701422 209.397826,22.5701422 C212.071217,22.5701422 214.116435,23.4028379 215.653269,25.114977 C217.195948,26.8300378 217.976052,29.5005073 217.976052,33.053342 L217.976052,52.20242 C217.976052,53.9729939 219.305443,55.8545938 221.774313,55.8545938 C224.392191,55.8545938 225.569652,53.7188026 225.569652,52.20242 L225.569652,31.8817247 C225.569652,26.4326813 224.225652,22.2604379 221.575634,19.4789423" id="Fill-9" fill="#FFFFFF"/>
                    <path d="M167.490154,49.2409452 C165.512136,39.6634845 158.701563,31.8828934 149.553597,28.6163891 L163.139684,13.645398 L163.139684,12.8419198 C163.139684,9.66306766 161.196728,9.18974593 160.039719,9.18974593 C157.792902,9.18974593 155.981423,10.700285 154.503023,12.1757633 C153.281737,13.3999719 143.195893,24.4762848 141.025041,26.8604239 L141.025041,3.65305037 C141.025041,2.12205909 139.704415,0.000876521724 137.22678,0.000876521724 C134.559232,0.000876521724 133.431441,2.615833 133.431441,3.65305037 L133.431441,52.2006669 C133.431441,53.9712408 134.760832,55.8557625 137.22678,55.8557625 C139.850502,55.8557625 141.025041,54.0209104 141.025041,52.2006669 L141.025041,34.1560064 C141.168206,34.1618499 141.314293,34.1676933 141.457458,34.1764585 C150.173006,34.7228238 157.667267,40.7240758 160.101076,49.1153105 C160.253006,49.6441452 160.384484,50.1700583 160.489667,50.6813626 C160.743858,51.908493 160.887023,53.1911365 160.913319,54.5000756 L160.922084,55.0464408 L161.404171,55.3064756 C162.061562,55.6658495 162.806606,55.8557625 163.557493,55.8557625 C165.579336,55.8557625 167.367441,54.4913104 167.905041,52.5395887 L167.948867,52.3730495 L167.934258,52.2006669 C167.834919,51.1897452 167.68591,50.1934322 167.490154,49.2409452" id="Fill-11" fill="#FFFFFF"/>
                    
                    <g id="Clip-14"/>
                    <path d="M23.3271648,24.4663509 C21.0189909,24.1245074 18.9796171,23.7125422 17.2616345,23.245064 C15.5816345,22.7892727 14.1645911,22.2107683 13.0484867,21.5212379 C11.970365,20.8550814 11.1464346,20.0486814 10.6029911,19.1166466 C10.0653911,18.1962988 9.79074766,17.0568206 9.79074766,15.730351 L9.79074766,15.2804032 C9.79074766,14.0532728 10.0653911,12.9634641 10.6029911,12.0401946 C11.1522781,11.1023163 11.9090085,10.3017598 12.8498085,9.65897723 C13.8110606,9.00158593 14.9213215,8.48735986 16.1484519,8.13382943 C17.3843475,7.780299 18.7108171,7.59915117 20.0927997,7.59915117 C21.6705388,7.59915117 23.1986083,7.81535987 24.6273387,8.24485551 C26.0473039,8.67142942 27.3182604,9.29375984 28.4022256,10.0943163 C29.4686604,10.8831859 30.3247299,11.8941076 30.9529038,13.0978641 C31.242156,13.658838 32.9250777,15.9114989 35.2829211,15.9114989 C35.5254255,15.9114989 35.7708516,15.8881249 36.0162776,15.8355336 C36.9132515,15.6485423 37.6086254,15.125551 38.0264341,14.3220728 C38.7159646,12.9956033 38.4676167,11.3214468 38.1491472,10.579325 C37.2930776,8.58085551 36.0191994,6.81904684 34.3596516,5.34064687 C32.708869,3.87393385 30.6636517,2.68770778 28.2795126,1.8141078 C25.901217,0.943429549 23.1723126,0.505168687 20.1687649,0.505168687 C17.5684171,0.505168687 15.1492171,0.852855638 12.978365,1.5453078 C10.7929042,2.23775996 8.88500854,3.24575994 7.3043477,4.54009036 C5.72076512,5.83734251 4.47026079,7.3917077 3.58497385,9.15935984 C2.69676517,10.9357772 2.24681735,12.919638 2.24681735,15.0554293 L2.24681735,15.9524032 C2.24681735,18.2868727 2.67046952,20.343777 3.50900864,22.0676031 C4.34462601,23.7943509 5.56299121,25.2902813 7.12904336,26.5174117 C8.67756507,27.7299334 10.5650085,28.720403 12.7417041,29.4625247 C14.8979476,30.198803 17.3434432,30.7480899 19.999304,31.0986986 C24.422817,31.7297942 27.6425734,32.7494812 29.5709212,34.1314638 C31.4086951,35.4491681 32.3407299,37.3921246 32.3407299,39.9106637 L32.3407299,40.3576897 C32.3407299,43.0018636 31.4174603,45.1464201 29.5972169,46.7358462 C27.7535995,48.3486461 24.9341213,49.1638113 21.2147475,49.1638113 C16.9051823,49.1638113 13.5071998,48.059394 11.1201389,45.8826983 C8.74768681,43.7235332 7.54393031,40.4044376 7.54393031,36.0159855 C7.54393031,34.8356029 6.75798249,32.6033942 3.78073037,32.6033942 C0.680765206,32.6033942 -2.33552304e-13,35.3907333 -2.33552304e-13,36.4659333 C-2.33552304e-13,39.4344202 0.417808689,41.7747332 1.3907478,44.2903506 C2.31693909,46.6832549 3.68723472,48.7956722 5.46365208,50.5720896 C7.24006944,52.3514287 9.48104332,53.7597069 12.1222954,54.7560199 C14.7518606,55.752333 17.8109214,56.2577938 21.2147475,56.2577938 C24.2124518,56.2577938 26.89753,55.8692025 29.1998604,55.1037069 C31.5138777,54.3323678 33.4889733,53.2308721 35.0696342,51.8342809 C36.6561385,50.4289244 37.8686602,48.7255505 38.677982,46.7738288 C39.4785385,44.833794 39.8846602,42.6746288 39.8846602,40.3576897 L39.8846602,39.4607158 C39.8846602,35.3030811 38.5055993,31.9372377 35.788382,29.4537595 C33.112069,27.0082639 28.9193734,25.3311857 23.3271648,24.4663509" id="Fill-13" fill="#FFFFFF" mask="url(#mask-4)"/>
                </g>
            </g>
        </g>
    </g>
</svg>